<?xml version="1.0" encoding="utf-8"?>
<!-- Generator: Adobe Illustrator 24.3.0, SVG Export Plug-In . SVG Version: 6.00 Build 0)  -->
<svg version="1.1" id="Layer_1" xmlns="http://www.w3.org/2000/svg" xmlns:xlink="http://www.w3.org/1999/xlink" x="0px" y="0px"
	 viewBox="0 0 177 128" style="enable-background:new 0 0 177 128;" xml:space="preserve">
<style type="text/css">
	.st0{fill:#070B08;}
</style>
<g>
	<path class="st0" d="M6,99.9l-0.2-0.1c-0.6-0.4-0.9-1-0.9-1.5C5,97.6,5.4,97,6.3,97c0.8,0,1.3,0.5,1.8,1.2l0.8-0.6
		C8.3,96.7,7.6,96,6.3,96c-1.4,0-2.4,1-2.4,2.3c0,0.7,0.4,1.5,0.8,1.9c0.3,0.3,0.6,0.5,0.9,0.7c0.8,0.6,1.4,1.1,1.8,1.5l0,0
		c0.1,0.1,0.2,0.2,0.2,0.3c0,0,0,0.1,0.1,0.1c0.1,0.1,0.1,0.2,0.1,0.2v0.1c0.1,0.2,0.1,0.4,0.1,0.6c0,0.9-0.8,1.7-1.8,1.7
		c-0.8,0-1.5-0.6-2.1-1.6l-0.8,0.5c0.8,1.5,1.7,2.1,3,2.1c1.5,0,2.8-1.2,2.8-2.7C9.1,102.2,7.8,101.2,6,99.9"/>
	<path class="st0" d="M18.4,96.5c-0.5-0.2-1.2-0.2-2.3-0.2h-2.3v9.9h1v-4.6h1c1.3,0,2.4,0,3.1-0.5c0.7-0.5,1.2-1.3,1.2-2.2
		C20.1,97.7,19.5,96.8,18.4,96.5 M16.5,100.6h-1.6v-3.4h1.8c0.7,0,1.3,0,1.8,0.4c0.4,0.3,0.6,0.8,0.6,1.3s-0.2,1-0.6,1.3
		C18,100.5,17.4,100.6,16.5,100.6"/>
	<path class="st0" d="M27.8,96.2l-3.3,6.9l-1.4,3l0,0l0,0h1.1l1.5-3.3H30l1.6,3.3h1.1L28,96.2H27.8z M27.2,101.9h-1l1.7-3.6l1.2,2.5
		l0.5,1.1H27.2z"/>
	<rect x="36.8" y="96.2" class="st0" width="1" height="9.9"/>
	<polygon class="st0" points="49.5,96.2 49.5,100.4 49.5,103.8 43,96.2 42.7,96.2 42.8,106.2 43.8,106.1 43.7,102 43.7,98.6 
		50.3,106.2 50.5,106.2 50.5,96.2 	"/>
	<path class="st0" d="M64.2,98.2c0.1-0.1,0.1-0.1,0.2-0.2l0.1-0.1c0.1,0,0.1-0.1,0.2-0.1s0.1-0.1,0.2-0.1s0.1-0.1,0.2-0.1
		s0.1-0.1,0.2-0.1s0.2-0.1,0.2-0.1s0.1,0,0.1-0.1c0.5-0.2,1.1-0.3,1.7-0.3c1.5,0,2.7,0.6,3.5,1.7l0.8-0.6c-1-1.3-2.5-2.1-4.3-2.1
		c-3.1,0-5.4,2.2-5.4,5.2c0,3.1,2.2,5.3,5.4,5.3c1.8,0,3.2-0.6,4.3-1.9l0.1-0.1l0,0l0,0l-0.8-0.6c-0.9,1.1-2.1,1.6-3.5,1.6
		c-2.5,0-4.4-1.8-4.4-4.3C62.9,100,63.4,98.9,64.2,98.2L64.2,98.2"/>
	<path class="st0" d="M80.9,96c-2.9,0-5.2,2.3-5.2,5.3c0,2.9,2.3,5.2,5.3,5.2c2.9,0,5.2-2.3,5.2-5.2C86.2,98.2,83.9,96,80.9,96
		 M83.9,104.2c-0.1,0.1-0.2,0.1-0.2,0.2c0,0,0,0-0.1,0.1s-0.1,0.1-0.2,0.2l-0.1,0.1c-0.1,0.1-0.2,0.1-0.2,0.1s-0.1,0-0.1,0.1
		c-0.6,0.3-1.3,0.5-2,0.5s-1.4-0.2-2-0.5l0,0c-0.1-0.1-0.2-0.1-0.3-0.2l0,0c-1.1-0.7-1.8-2-1.8-3.5c0-0.5,0.1-1,0.2-1.4l0,0
		c0-0.1,0.1-0.2,0.1-0.4c0-0.1,0.1-0.1,0.1-0.2s0.1-0.1,0.1-0.2s0.1-0.1,0.1-0.2s0.1-0.1,0.1-0.2l0.1-0.1c0.1-0.1,0.1-0.1,0.2-0.2
		c0,0,0,0,0.1-0.1c0.8-0.9,2-1.4,3.1-1.4s2.3,0.5,3.1,1.4c0,0,0,0,0.1,0.1s0.1,0.1,0.2,0.2l0.1,0.1c0,0.1,0.1,0.1,0.1,0.2
		s0.1,0.1,0.1,0.2s0.1,0.1,0.1,0.2s0.1,0.1,0.1,0.2s0.1,0.2,0.1,0.3l0,0c0.1,0.4,0.2,0.9,0.2,1.4C85.1,102.4,84.7,103.4,83.9,104.2
		L83.9,104.2z"/>
	<polygon class="st0" points="91.6,105.2 91.6,96.2 90.6,96.2 90.6,106.2 95.4,106.2 95.4,105.2 	"/>
	<polygon class="st0" points="101.4,105.2 101.4,96.2 100.4,96.2 100.4,106.2 105.2,106.2 105.2,105.2 	"/>
	<polygon class="st0" points="115.7,96.2 110,96.2 110,106.2 115.7,106.2 115.7,105.2 111,105.2 111,101.3 115.7,101.3 115.7,100.3 
		111,100.3 111,97.2 115.7,97.2 	"/>
	<path class="st0" d="M122.8,98.2c0.1-0.1,0.1-0.1,0.2-0.2l0.1-0.1c0.1,0,0.1-0.1,0.2-0.1s0.1-0.1,0.2-0.1s0.1-0.1,0.2-0.1
		s0.1-0.1,0.2-0.1s0.2-0.1,0.2-0.1s0.1,0,0.1-0.1c0.5-0.2,1.1-0.3,1.7-0.3c1.5,0,2.7,0.6,3.5,1.7l0.8-0.6c-1-1.3-2.5-2.1-4.3-2.1
		c-3.1,0-5.4,2.2-5.4,5.2c0,3.1,2.2,5.3,5.4,5.3c1.8,0,3.2-0.6,4.3-1.9l0.1-0.1l0,0l0,0l-0.8-0.6c-0.9,1.1-2.1,1.6-3.5,1.6
		c-2.5,0-4.4-1.8-4.4-4.3C121.5,100,122,98.9,122.8,98.2L122.8,98.2"/>
	<polygon class="st0" points="139.7,96.2 134.3,96.2 134.3,97.2 136.5,97.2 136.5,106.2 137.5,106.2 137.5,97.2 139.7,97.2 	"/>
	<rect x="144.6" y="96.2" class="st0" width="1" height="9.9"/>
	<path class="st0" d="M155.7,96c-2.9,0-5.2,2.3-5.2,5.3c0,2.9,2.3,5.2,5.3,5.2c2.9,0,5.2-2.3,5.2-5.2C161,98.2,158.7,96,155.7,96
		 M158.8,104.2c-0.1,0.1-0.2,0.1-0.2,0.2c0,0,0,0-0.1,0.1s-0.1,0.1-0.2,0.2l-0.1,0.1c-0.1,0.1-0.2,0.1-0.2,0.1s-0.1,0-0.1,0.1
		c-0.6,0.3-1.3,0.5-2,0.5s-1.4-0.2-2-0.5l0,0c-0.1-0.1-0.2-0.1-0.3-0.2l0,0c-1.1-0.7-1.8-2-1.8-3.5c0-0.5,0.1-1,0.2-1.4l0,0
		c0-0.1,0.1-0.2,0.1-0.4c0-0.1,0.1-0.1,0.1-0.2s0.1-0.1,0.1-0.2s0.1-0.1,0.1-0.2s0.1-0.1,0.1-0.2l0.1-0.1c0.1-0.1,0.1-0.1,0.2-0.2
		c0,0,0,0,0.1-0.1c0.8-0.9,2-1.4,3.1-1.4s2.3,0.5,3.1,1.4c0,0,0,0,0.1,0.1s0.1,0.1,0.2,0.2l0.1,0.1c0,0.1,0.1,0.1,0.1,0.2
		s0.1,0.1,0.1,0.2s0.1,0.1,0.1,0.2s0.1,0.1,0.1,0.2s0.1,0.2,0.1,0.3l0,0c0.1,0.4,0.2,0.9,0.2,1.4C160,102.4,159.5,103.4,158.8,104.2
		L158.8,104.2z"/>
	<polygon class="st0" points="173.5,106.2 173.7,106.2 173.7,96.2 172.7,96.2 172.7,100.4 172.7,103.8 166.1,96.2 165.9,96.2 
		165.9,106.2 166.9,106.1 166.9,102 166.9,98.6 	"/>
	<path class="st0" d="M88.5,3C69.4,3,53.8,18.6,53.8,37.7s15.6,34.7,34.7,34.7s34.7-15.6,34.7-34.7S107.6,3,88.5,3 M88.5,71
		c-18.4,0-33.3-14.9-33.3-33.3S70.1,4.4,88.5,4.4s33.3,14.9,33.3,33.3S106.9,71,88.5,71"/>
	<path class="st0" d="M84.2,24.2l9.5,1c1.1,0.1,2.8-0.5,3.6-1.8l0,0c-0.7,0.4-1.9,0.6-2.9,0.5l-9.3-1c-1.1-0.1-2.8,0.5-3.6,1.8
		C82.1,24.3,83.3,24.1,84.2,24.2"/>
	<path class="st0" d="M82.5,26.8l9.5,1c1.1,0.1,2.8-0.5,3.6-1.8l0,0c-0.7,0.4-1.9,0.6-2.9,0.5l-9.3-1c-1.1-0.1-2.8,0.5-3.6,1.8
		C80.4,26.9,81.5,26.7,82.5,26.8"/>
	<path class="st0" d="M95.3,32.3v9.8l0,0v0.1c0,1-0.3,1.9-0.8,2.8l2.2,3.8V33.2v-0.3c0.1-0.8,0.3-1.6,0.6-2.3l0.3-0.6
		C96.3,30.1,95.3,31.1,95.3,32.3"/>
	<path class="st0" d="M95.6,50.4L95.6,50.4l-7.1-13.7l0,0L85.1,30h-1.6l5,9.7l0,0l6.6,12.8h2.5C96.8,52,96,51.3,95.6,50.4"/>
	<path class="st0" d="M88.5,42.8L81.9,30h-2.5c0.8,0.5,1.5,1.2,2,2.1v0.1l7.1,13.7l0,0l3.4,6.7h1.6L88.5,42.8L88.5,42.8z"/>
	<path class="st0" d="M81.7,50.2v-9.8l0,0v-0.1c0-1,0.3-1.9,0.8-2.8l-2.2-3.8v15.6v0.3c-0.1,0.8-0.3,1.6-0.6,2.3l-0.3,0.6
		C80.7,52.5,81.7,51.5,81.7,50.2"/>
	<polygon class="st0" points="38.3,118.5 42,118.5 42,119.1 38.9,119.1 38.9,121.1 42,121.1 42,121.7 38.9,121.7 38.9,124.2 
		42,124.2 42,124.9 38.3,124.9 	"/>
	<path class="st0" d="M46.9,119.8c-0.3-0.5-0.6-0.8-1.2-0.8c-0.6,0-0.9,0.4-0.9,0.8c0,0.3,0.2,0.7,0.6,1c1.2,0.9,2.1,1.5,2.1,2.5
		c0,0.9-0.8,1.7-1.8,1.7c-0.9,0-1.5-0.5-1.9-1.4l0.5-0.3c0.4,0.7,0.8,1.1,1.3,1.1c0.7,0,1.2-0.5,1.2-1.1c0-0.7-0.7-1.1-2.1-2.3
		c-0.3-0.2-0.5-0.7-0.5-1.2c0-0.9,0.7-1.5,1.5-1.5s1.3,0.5,1.7,1L46.9,119.8z"/>
	<path class="st0" d="M49.3,118.5h1.5c0.7,0,1.2,0,1.5,0.2c0.6,0.2,1.1,0.8,1.1,1.5c0,0.6-0.3,1.1-0.7,1.4c-0.5,0.3-1.1,0.3-2,0.3
		h-0.6v3h-0.6v-6.4H49.3z M49.9,119.1v2.2c0.4,0,0.7,0,1.1,0c0.6,0,1,0,1.3-0.3c0.2-0.2,0.4-0.5,0.4-0.8s-0.2-0.6-0.4-0.8
		c-0.3-0.2-0.7-0.2-1.2-0.2L49.9,119.1L49.9,119.1z"/>
	<path class="st0" d="M57.3,118.5l3,6.4h-0.7l-1-2.1h-2.8l-1,2.1h-0.7l3-6.4H57.3z M57.2,119.8l-1.1,2.3h2.2L57.2,119.8z"/>
	<path class="st0" d="M62,124.9v-6.4h0.1l4.2,4.9v-4.9H67v6.4h-0.1l-4.2-4.8v4.8H62z M65.8,117l0.3,0.4c-0.3,0.2-0.6,0.4-1,0.4
		c-0.6,0-0.8-0.4-1.2-0.4c-0.3,0-0.5,0.2-0.7,0.3l-0.3-0.4c0.3-0.3,0.6-0.4,1-0.4c0.5,0,0.8,0.3,1.2,0.3
		C65.4,117.3,65.6,117.2,65.8,117"/>
	<path class="st0" d="M72,118.5l3,6.4h-0.7l-1-2.1h-2.8l-1,2.1h-0.7l3-6.4H72z M71.9,119.8l-1.1,2.3H73L71.9,119.8z"/>
	<path class="st0" d="M80.3,125c-1.1,0-1.6-0.7-1.6-1.5s0.6-1.4,1.5-2.2c-0.5-0.6-0.8-1-0.8-1.5c0-0.7,0.6-1.1,1.4-1.1
		s1.4,0.5,1.4,1.2c0,0.5-0.4,1-1.1,1.6c1.1,1.1,1.6,1.7,1.6,1.7c0.3-0.2,0.6-0.5,0.8-0.7l0.4,0.5c-0.2,0.2-0.5,0.4-0.7,0.6
		c0.4,0.4,0.8,0.8,1.2,1.3h-0.9c-0.4-0.5-0.7-0.7-0.8-0.9C81.9,124.6,81.2,125,80.3,125 M79.3,123.5c0,0.5,0.4,0.9,1.1,0.9
		c0.6,0,1.2-0.4,1.9-0.9c-0.5-0.5-1-1-1.6-1.7C79.8,122.5,79.3,122.9,79.3,123.5 M81.5,119.9c0-0.3-0.3-0.6-0.8-0.6
		c-0.4,0-0.8,0.2-0.8,0.6c0,0.2,0.2,0.6,0.7,1.1C81.2,120.6,81.5,120.2,81.5,119.9"/>
	<path class="st0" d="M88,118.5h1.5c0.7,0,1.2,0,1.5,0.2c0.6,0.2,1.1,0.8,1.1,1.5c0,0.6-0.3,1.1-0.7,1.4c-0.5,0.3-1.1,0.3-2,0.3
		h-0.6v3H88V118.5z M88.6,119.1v2.2c0.4,0,0.7,0,1.1,0c0.6,0,1,0,1.3-0.3c0.2-0.2,0.4-0.5,0.4-0.8s-0.2-0.6-0.4-0.8
		c-0.3-0.2-0.7-0.2-1.2-0.2L88.6,119.1L88.6,119.1z"/>
	<path class="st0" d="M100.5,121.7c0,1.9-1.5,3.4-3.4,3.4c-2,0-3.4-1.5-3.4-3.3c0-1.9,1.5-3.4,3.3-3.4
		C99.1,118.3,100.5,119.8,100.5,121.7 M94.5,121.7c0,1.6,1.2,2.7,2.7,2.7s2.7-1.1,2.7-2.7s-1.3-2.7-2.7-2.7
		C95.7,118.9,94.5,120.1,94.5,121.7"/>
	<path class="st0" d="M102.3,118.5h1.5c0.7,0,1.2,0,1.5,0.2c0.7,0.2,1.1,0.8,1.1,1.5c0,0.3,0,0.5-0.2,0.8c-0.3,0.7-1,0.9-2,0.9
		l2.3,3h-0.8l-2.3-3H103v3h-0.6L102.3,118.5L102.3,118.5z M103,119.1v2.2c0.4,0,0.7,0,1.1,0c0.6,0,1-0.1,1.3-0.3
		c0.2-0.2,0.4-0.5,0.4-0.8c0-0.6-0.4-1.1-1.4-1.1C104.4,119.1,103,119.1,103,119.1z"/>
	<polygon class="st0" points="108.2,119.1 108.2,118.5 111.7,118.5 111.7,119.1 110.3,119.1 110.3,124.9 109.6,124.9 109.6,119.1 	
		"/>
	<path class="st0" d="M117.1,118.5h0.6v4.2c0,1.5-0.8,2.4-2.1,2.4c-1.3,0-2.1-0.9-2.1-2.4v-4.2h0.6v4.1c0,0.5,0,0.9,0.3,1.4
		c0.3,0.3,0.7,0.5,1.1,0.5c0.5,0,0.9-0.2,1.1-0.5c0.3-0.4,0.3-0.9,0.3-1.4v-4.1H117.1z"/>
	<path class="st0" d="M126.3,121.8c0,2-1.3,3.2-3.2,3.2c-2.2,0-3.6-1.6-3.6-3.3c0-1.8,1.4-3.4,3.5-3.4c1.2,0,2.1,0.4,2.9,1.2
		l-0.5,0.5c-0.7-0.7-1.6-1.1-2.4-1.1c-1.5,0-2.9,1.2-2.9,2.7s1.2,2.8,3,2.8c1.2,0,2.3-0.7,2.5-2h-2v-0.6
		C123.6,121.8,126.3,121.8,126.3,121.8z"/>
	<path class="st0" d="M130.8,118.5l3,6.4h-0.7l-1-2.1h-2.8l-1,2.1h-0.7l3-6.4H130.8z M130.7,119.8l-1.1,2.3h2.2L130.7,119.8z"/>
	<polygon class="st0" points="135.6,118.5 136.2,118.5 136.2,124.2 138.7,124.2 138.7,124.9 135.6,124.9 	"/>
</g>
</svg>
